<svg xmlns="http://www.w3.org/2000/svg" width="25" height="24" viewBox="0 0 25 24" fill="none">
  <path fill-rule="evenodd" clip-rule="evenodd" d="M7.5 2C6.94772 2 6.5 2.44772 6.5 3V4H5.5C3.84315 4 2.5 5.34315 2.5 7V19C2.5 20.6569 3.84315 22 5.5 22H19.5C21.1569 22 22.5 20.6569 22.5 19V7C22.5 5.34315 21.1569 4 19.5 4H18.5V3C18.5 2.44772 18.0523 2 17.5 2C16.9477 2 16.5 2.44772 16.5 3V4H8.5V3C8.5 2.44772 8.05228 2 7.5 2ZM9.5 13C9.5 12.4477 9.94772 12 10.5 12H17.5C18.0523 12 18.5 12.4477 18.5 13C18.5 13.5523 18.0523 14 17.5 14H10.5C9.94772 14 9.5 13.5523 9.5 13ZM6.5 17C6.5 16.4477 6.94772 16 7.5 16H13.5C14.0523 16 14.5 16.4477 14.5 17C14.5 17.5523 14.0523 18 13.5 18H7.5C6.94772 18 6.5 17.5523 6.5 17Z" fill="#FCFCFD"/>
</svg>
