<svg xmlns="http://www.w3.org/2000/svg" width="30" height="26" viewBox="0 0 30 26" fill="none">
  <path d="M27.427 8.971L25.489 3.15559C25.2079 2.3091 24.6671 1.57274 23.9436 1.05114C23.2201 0.529531 22.3505 0.249209 21.4586 0.250002H8.54143C7.64948 0.249209 6.77996 0.529531 6.05643 1.05114C5.3329 1.57274 4.79215 2.3091 4.51101 3.15559L2.57301 8.971C2.05821 9.18701 1.61857 9.55008 1.30912 10.0148C0.999678 10.4794 0.834178 11.0251 0.833344 11.5833V18.6667C0.833344 19.7334 1.43259 20.6528 2.30526 21.1359C2.28684 21.2294 2.25001 21.3144 2.25001 21.4122V24.3333C2.25001 24.7091 2.39927 25.0694 2.66494 25.3351C2.93062 25.6007 3.29095 25.75 3.66668 25.75H5.08334C5.45907 25.75 5.8194 25.6007 6.08508 25.3351C6.35075 25.0694 6.50001 24.7091 6.50001 24.3333V21.5H23.5V24.3333C23.5 24.7091 23.6493 25.0694 23.9149 25.3351C24.1806 25.6007 24.541 25.75 24.9167 25.75H26.3333C26.7091 25.75 27.0694 25.6007 27.3351 25.3351C27.6008 25.0694 27.75 24.7091 27.75 24.3333V21.4122C27.75 21.3144 27.7132 21.228 27.6948 21.1359C28.1387 20.8939 28.5096 20.537 28.7685 20.1026C29.0274 19.6683 29.1649 19.1723 29.1667 18.6667V11.5833C29.1667 10.4089 28.447 9.40025 27.427 8.971ZM3.66668 18.6667V11.5833H26.3333L26.3362 18.6667H3.66668ZM8.54143 3.08334H21.4572C22.0678 3.08334 22.6089 3.4715 22.8016 4.05234L24.3684 8.75H5.63159L7.19701 4.05234C7.291 3.77013 7.47144 3.52466 7.71275 3.35074C7.95405 3.17682 8.24398 3.08326 8.54143 3.08334Z" fill="#3B71FE"/>
  <path d="M7.20834 17.25C8.38195 17.25 9.33334 16.2986 9.33334 15.125C9.33334 13.9514 8.38195 13 7.20834 13C6.03474 13 5.08334 13.9514 5.08334 15.125C5.08334 16.2986 6.03474 17.25 7.20834 17.25Z" fill="#3B71FE"/>
  <path d="M22.7917 17.25C23.9653 17.25 24.9167 16.2986 24.9167 15.125C24.9167 13.9514 23.9653 13 22.7917 13C21.6181 13 20.6667 13.9514 20.6667 15.125C20.6667 16.2986 21.6181 17.25 22.7917 17.25Z" fill="#3B71FE"/>
</svg>
