<svg xmlns="http://www.w3.org/2000/svg" width="19" height="18" viewBox="0 0 19 18" fill="none">
  <path d="M17.7942 6.1967L16.5461 2.45137C16.365 1.90621 16.0167 1.43197 15.5508 1.09604C15.0848 0.760105 14.5248 0.579569 13.9503 0.580079H5.63126C5.05681 0.579569 4.49681 0.760105 4.03083 1.09604C3.56486 1.43197 3.21659 1.90621 3.03553 2.45137L1.7874 6.1967C1.45585 6.33581 1.1727 6.56964 0.973411 6.86891C0.774117 7.16817 0.66753 7.51957 0.666992 7.87913V12.441C0.666992 13.1281 1.05293 13.7202 1.61496 14.0313C1.60309 14.0915 1.57937 14.1463 1.57937 14.2092V16.0906C1.57937 16.3325 1.6755 16.5646 1.8466 16.7357C2.01771 16.9068 2.24978 17.0029 2.49175 17.0029H3.40413C3.64611 17.0029 3.87818 16.9068 4.04929 16.7357C4.22039 16.5646 4.31652 16.3325 4.31652 16.0906V14.2658H15.2651V16.0906C15.2651 16.3325 15.3612 16.5646 15.5323 16.7357C15.7034 16.9068 15.9355 17.0029 16.1775 17.0029H17.0898C17.3318 17.0029 17.5639 16.9068 17.735 16.7357C17.9061 16.5646 18.0022 16.3325 18.0022 16.0906V14.2092C18.0022 14.1463 17.9785 14.0906 17.9666 14.0313C18.2526 13.8754 18.4914 13.6456 18.6582 13.3658C18.8249 13.0861 18.9135 12.7667 18.9146 12.441V7.87913C18.9146 7.12276 18.4511 6.47315 17.7942 6.1967ZM2.49175 12.441V7.87913H17.0898L17.0917 12.441H2.49175ZM5.63126 2.40484H13.9494C14.3427 2.40484 14.6912 2.65483 14.8153 3.02891L15.8244 6.05436H3.75723L4.76541 3.02891C4.82594 2.84716 4.94215 2.68907 5.09756 2.57706C5.25297 2.46505 5.43969 2.40479 5.63126 2.40484Z" fill="#777E91"/>
  <path d="M4.77287 11.5286C5.52871 11.5286 6.14144 10.9159 6.14144 10.1601C6.14144 9.40423 5.52871 8.7915 4.77287 8.7915C4.01703 8.7915 3.4043 9.40423 3.4043 10.1601C3.4043 10.9159 4.01703 11.5286 4.77287 11.5286Z" fill="#777E91"/>
  <path d="M14.809 11.5286C15.5648 11.5286 16.1776 10.9159 16.1776 10.1601C16.1776 9.40423 15.5648 8.7915 14.809 8.7915C14.0532 8.7915 13.4404 9.40423 13.4404 10.1601C13.4404 10.9159 14.0532 11.5286 14.809 11.5286Z" fill="#777E91"/>
</svg>
