<svg xmlns="http://www.w3.org/2000/svg" width="25" height="24" viewBox="0 0 25 24" fill="none">
  <path fill-rule="evenodd" clip-rule="evenodd" d="M12.5 22C18.0228 22 22.5 17.5228 22.5 12C22.5 6.47715 18.0228 2 12.5 2C6.97715 2 2.5 6.47715 2.5 12C2.5 17.5228 6.97715 22 12.5 22ZM18.2071 9.70711C18.5976 9.31658 18.5976 8.68342 18.2071 8.29289C17.8166 7.90237 17.1834 7.90237 16.7929 8.29289L11.5 13.5858L9.20711 11.2929C8.81658 10.9024 8.18342 10.9024 7.79289 11.2929C7.40237 11.6834 7.40237 12.3166 7.79289 12.7071L10.7929 15.7071C11.1834 16.0976 11.8166 16.0976 12.2071 15.7071L18.2071 9.70711Z" fill="#FCFCFD"/>
</svg>
