<svg xmlns="http://www.w3.org/2000/svg" width="45" height="45" viewBox="0 0 45 45" fill="none">
  <path fill-rule="evenodd" clip-rule="evenodd" d="M22.5 41.25C32.8553 41.25 41.25 32.8553 41.25 22.5C41.25 12.1447 32.8553 3.75 22.5 3.75C12.1447 3.75 3.75 12.1447 3.75 22.5C3.75 32.8553 12.1447 41.25 22.5 41.25ZM33.2008 18.2008C33.9331 17.4686 33.9331 16.2814 33.2008 15.5492C32.4686 14.8169 31.2814 14.8169 30.5492 15.5492L20.625 25.4734L16.3258 21.1742C15.5936 20.4419 14.4064 20.4419 13.6742 21.1742C12.9419 21.9064 12.9419 23.0936 13.6742 23.8258L19.2992 29.4508C20.0314 30.1831 21.2186 30.1831 21.9508 29.4508L33.2008 18.2008Z" fill="#23262F"/>
</svg>
