<svg xmlns="http://www.w3.org/2000/svg" width="22" height="22" viewBox="0 0 22 22" fill="none">
  <path fill-rule="evenodd" clip-rule="evenodd" d="M10.9998 18.2988C15.0309 18.2988 18.2988 15.0309 18.2988 10.9998C18.2988 6.96863 15.0309 3.70074 10.9998 3.70074C6.96863 3.70074 3.70074 6.96863 3.70074 10.9998C3.70074 15.0309 6.96863 18.2988 10.9998 18.2988ZM10.9998 20.1236C16.0387 20.1236 20.1236 16.0387 20.1236 10.9998C20.1236 5.96084 16.0387 1.87598 10.9998 1.87598C5.96084 1.87598 1.87598 5.96084 1.87598 10.9998C1.87598 16.0387 5.96084 20.1236 10.9998 20.1236Z" fill="#777E91"/>
  <path fill-rule="evenodd" clip-rule="evenodd" d="M11.0003 5.52539C11.5042 5.52539 11.9127 5.93388 11.9127 6.43777V10.6218L13.9264 12.6355C14.2827 12.9918 14.2827 13.5695 13.9264 13.9258C13.5701 14.2821 12.9924 14.2821 12.6361 13.9258L10.3551 11.6448C10.184 11.4737 10.0879 11.2417 10.0879 10.9997V6.43777C10.0879 5.93388 10.4964 5.52539 11.0003 5.52539Z" fill="#777E91"/>
</svg>
