<svg xmlns="http://www.w3.org/2000/svg" width="46" height="45" viewBox="0 0 46 45" fill="none">
  <path fill-rule="evenodd" clip-rule="evenodd" d="M13.625 3.75C12.5895 3.75 11.75 4.58947 11.75 5.625V7.5H9.875C6.7684 7.5 4.25 10.0184 4.25 13.125V35.625C4.25 38.7316 6.7684 41.25 9.875 41.25H36.125C39.2316 41.25 41.75 38.7316 41.75 35.625V13.125C41.75 10.0184 39.2316 7.5 36.125 7.5H34.25V5.625C34.25 4.58947 33.4105 3.75 32.375 3.75C31.3395 3.75 30.5 4.58947 30.5 5.625V7.5H15.5V5.625C15.5 4.58947 14.6605 3.75 13.625 3.75ZM17.375 24.375C17.375 23.3395 18.2145 22.5 19.25 22.5H32.375C33.4105 22.5 34.25 23.3395 34.25 24.375C34.25 25.4105 33.4105 26.25 32.375 26.25H19.25C18.2145 26.25 17.375 25.4105 17.375 24.375ZM11.75 31.875C11.75 30.8395 12.5895 30 13.625 30H24.875C25.9105 30 26.75 30.8395 26.75 31.875C26.75 32.9105 25.9105 33.75 24.875 33.75H13.625C12.5895 33.75 11.75 32.9105 11.75 31.875Z" fill="#3B71FE"/>
</svg>
