<svg xmlns="http://www.w3.org/2000/svg" width="45" height="45" viewBox="0 0 45 45" fill="none">
  <path fill-rule="evenodd" clip-rule="evenodd" d="M13.125 3.75C12.0895 3.75 11.25 4.58947 11.25 5.625V7.5H9.375C6.2684 7.5 3.75 10.0184 3.75 13.125V35.625C3.75 38.7316 6.2684 41.25 9.375 41.25H35.625C38.7316 41.25 41.25 38.7316 41.25 35.625V13.125C41.25 10.0184 38.7316 7.5 35.625 7.5H33.75V5.625C33.75 4.58947 32.9105 3.75 31.875 3.75C30.8395 3.75 30 4.58947 30 5.625V7.5H15V5.625C15 4.58947 14.1605 3.75 13.125 3.75ZM16.875 24.375C16.875 23.3395 17.7145 22.5 18.75 22.5H31.875C32.9105 22.5 33.75 23.3395 33.75 24.375C33.75 25.4105 32.9105 26.25 31.875 26.25H18.75C17.7145 26.25 16.875 25.4105 16.875 24.375ZM11.25 31.875C11.25 30.8395 12.0895 30 13.125 30H24.375C25.4105 30 26.25 30.8395 26.25 31.875C26.25 32.9105 25.4105 33.75 24.375 33.75H13.125C12.0895 33.75 11.25 32.9105 11.25 31.875Z" fill="#23262F"/>
</svg>
