<svg xmlns="http://www.w3.org/2000/svg" width="32" height="32" viewBox="0 0 32 32" fill="none">
  <path fill-rule="evenodd" clip-rule="evenodd" d="M16.0003 29.3332C23.3641 29.3332 29.3337 23.3636 29.3337 15.9998C29.3337 8.63604 23.3641 2.6665 16.0003 2.6665C8.63653 2.6665 2.66699 8.63604 2.66699 15.9998C2.66699 23.3636 8.63653 29.3332 16.0003 29.3332ZM16.0003 5.33317C15.2639 5.33317 14.667 5.93012 14.667 6.6665V7.99984C12.4579 7.99984 10.667 9.7907 10.667 11.9998V12.7445C10.667 14.4662 11.7687 15.9948 13.4021 16.5392L17.7553 17.9903C18.2998 18.1718 18.667 18.6813 18.667 19.2552V19.9998C18.667 20.7362 18.07 21.3332 17.3337 21.3332H14.667C13.9306 21.3332 13.3337 20.7362 13.3337 19.9998C13.3337 19.2635 12.7367 18.6665 12.0003 18.6665C11.2639 18.6665 10.667 19.2635 10.667 19.9998C10.667 22.209 12.4579 23.9998 14.667 23.9998V25.3332C14.667 26.0695 15.2639 26.6665 16.0003 26.6665C16.7367 26.6665 17.3337 26.0695 17.3337 25.3332V23.9998C19.5428 23.9998 21.3337 22.209 21.3337 19.9998V19.2552C21.3337 17.5335 20.2319 16.0049 18.5986 15.4605L14.2454 14.0094C13.7009 13.8279 13.3337 13.3184 13.3337 12.7445V11.9998C13.3337 11.2635 13.9306 10.6665 14.667 10.6665H17.3337C18.07 10.6665 18.667 11.2635 18.667 11.9998C18.667 12.7362 19.2639 13.3332 20.0003 13.3332C20.7367 13.3332 21.3337 12.7362 21.3337 11.9998C21.3337 9.7907 19.5428 7.99984 17.3337 7.99984V6.6665C17.3337 5.93012 16.7367 5.33317 16.0003 5.33317Z" fill="#FCFCFD"/>
</svg>
