<svg xmlns="http://www.w3.org/2000/svg" width="26" height="27" viewBox="0 0 26 27" fill="none">
  <path fill-rule="evenodd" clip-rule="evenodd" d="M13.0003 22.1666C17.7868 22.1666 21.667 18.2865 21.667 13.5C21.667 8.71349 17.7868 4.83329 13.0003 4.83329C8.21386 4.83329 4.33366 8.71349 4.33366 13.5C4.33366 18.2865 8.21386 22.1666 13.0003 22.1666ZM13.0003 24.3333C18.9834 24.3333 23.8337 19.483 23.8337 13.5C23.8337 7.51687 18.9834 2.66663 13.0003 2.66663C7.01724 2.66663 2.16699 7.51687 2.16699 13.5C2.16699 19.483 7.01724 24.3333 13.0003 24.3333Z" fill="#777E91"/>
  <path d="M13.0003 11.3334C13.0003 10.7351 13.4853 10.25 14.0837 10.25H15.167C15.7653 10.25 16.2503 9.76502 16.2503 9.16671C16.2503 8.5684 15.7653 8.08337 15.167 8.08337H14.0837C12.2887 8.08337 10.8337 9.53845 10.8337 11.3334V13.5H9.75033C9.15202 13.5 8.66699 13.985 8.66699 14.5834C8.66699 15.1817 9.15201 15.6667 9.75033 15.6667H10.8337V22.1667C10.8337 22.765 11.3187 23.25 11.917 23.25C12.5153 23.25 13.0003 22.765 13.0003 22.1667V15.6667H15.167C15.7653 15.6667 16.2503 15.1817 16.2503 14.5834C16.2503 13.985 15.7653 13.5 15.167 13.5H13.0003V11.3334Z" fill="#777E91"/>
</svg>
