<svg xmlns="http://www.w3.org/2000/svg" width="26" height="27" viewBox="0 0 26 27" fill="none">
  <path fill-rule="evenodd" clip-rule="evenodd" d="M17.3337 4.83329H8.66699C6.27376 4.83329 4.33366 6.77339 4.33366 9.16663V17.8333C4.33366 20.2265 6.27376 22.1666 8.66699 22.1666H17.3337C19.7269 22.1666 21.667 20.2265 21.667 17.8333V9.16663C21.667 6.77339 19.7269 4.83329 17.3337 4.83329ZM8.66699 2.66663C5.07714 2.66663 2.16699 5.57677 2.16699 9.16663V17.8333C2.16699 21.4231 5.07714 24.3333 8.66699 24.3333H17.3337C20.9235 24.3333 23.8337 21.4231 23.8337 17.8333V9.16663C23.8337 5.57677 20.9235 2.66663 17.3337 2.66663H8.66699Z" fill="#777E91"/>
  <path d="M18.4163 9.16667C19.0147 9.16667 19.4997 8.68164 19.4997 8.08333C19.4997 7.48503 19.0147 7 18.4163 7C17.818 7 17.333 7.48503 17.333 8.08333C17.333 8.68164 17.818 9.16667 18.4163 9.16667Z" fill="#777E91"/>
  <path fill-rule="evenodd" clip-rule="evenodd" d="M18.4163 13.5C18.4163 16.4916 15.9912 18.9167 12.9997 18.9167C10.0081 18.9167 7.58301 16.4916 7.58301 13.5C7.58301 10.5085 10.0081 8.08337 12.9997 8.08337C15.9912 8.08337 18.4163 10.5085 18.4163 13.5ZM16.2497 13.5C16.2497 15.295 14.7946 16.75 12.9997 16.75C11.2047 16.75 9.74967 15.295 9.74967 13.5C9.74967 11.7051 11.2047 10.25 12.9997 10.25C14.7946 10.25 16.2497 11.7051 16.2497 13.5Z" fill="#777E91"/>
</svg>
