<svg xmlns="http://www.w3.org/2000/svg" width="32" height="32" viewBox="0 0 32 32" fill="none">
  <path d="M16.0003 15.9998C15.2639 15.9998 14.667 15.4029 14.667 14.6665C14.667 13.9301 15.2639 13.3332 16.0003 13.3332C16.7367 13.3332 17.3337 13.9301 17.3337 14.6665C17.3337 15.4029 16.7367 15.9998 16.0003 15.9998Z" fill="#FCFCFD"/>
  <path fill-rule="evenodd" clip-rule="evenodd" d="M6.66699 2.6665C4.45785 2.6665 2.66699 4.45737 2.66699 6.6665V22.6665C2.66699 24.8756 4.45785 26.6665 6.66699 26.6665L6.66699 27.9998C6.66699 28.7362 7.26395 29.3332 8.00033 29.3332C8.73671 29.3332 9.33366 28.7362 9.33366 27.9998V26.6665H22.667V27.9998C22.667 28.7362 23.2639 29.3332 24.0003 29.3332C24.7367 29.3332 25.3337 28.7362 25.3337 27.9998V26.6665C27.5428 26.6665 29.3337 24.8756 29.3337 22.6665V6.6665C29.3337 4.45737 27.5428 2.6665 25.3337 2.6665H6.66699ZM16.0003 7.99984C15.2639 7.99984 14.667 8.59679 14.667 9.33317V10.8941C13.5304 11.2958 12.6296 12.1966 12.2279 13.3332H10.667C9.93061 13.3332 9.33366 13.9301 9.33366 14.6665C9.33366 15.4029 9.93061 15.9998 10.667 15.9998H12.2279C12.6296 17.1364 13.5304 18.0372 14.667 18.4389V19.9998C14.667 20.7362 15.2639 21.3332 16.0003 21.3332C16.7367 21.3332 17.3337 20.7362 17.3337 19.9998V18.4389C18.4702 18.0372 19.371 17.1364 19.7727 15.9998H21.3337C22.07 15.9998 22.667 15.4029 22.667 14.6665C22.667 13.9301 22.07 13.3332 21.3337 13.3332H19.7727C19.371 12.1966 18.4702 11.2958 17.3337 10.8941V9.33317C17.3337 8.59679 16.7367 7.99984 16.0003 7.99984Z" fill="#FCFCFD"/>
</svg>
