<svg xmlns="http://www.w3.org/2000/svg" width="26" height="27" viewBox="0 0 26 27" fill="none">
  <path fill-rule="evenodd" clip-rule="evenodd" d="M19.5003 4.83329H6.50033C5.30371 4.83329 4.33366 5.80334 4.33366 6.99996V20C4.33366 21.1966 5.30371 22.1666 6.50033 22.1666H19.5003C20.697 22.1666 21.667 21.1966 21.667 20V6.99996C21.667 5.80334 20.697 4.83329 19.5003 4.83329ZM6.50033 2.66663C4.10709 2.66663 2.16699 4.60672 2.16699 6.99996V20C2.16699 22.3932 4.10709 24.3333 6.50033 24.3333H19.5003C21.8935 24.3333 23.8337 22.3932 23.8337 20V6.99996C23.8337 4.60672 21.8935 2.66663 19.5003 2.66663H6.50033Z" fill="#777E91"/>
  <path d="M7.58333 9.16667C8.18164 9.16667 8.66667 8.68164 8.66667 8.08333C8.66667 7.48503 8.18164 7 7.58333 7C6.98503 7 6.5 7.48503 6.5 8.08333C6.5 8.68164 6.98503 9.16667 7.58333 9.16667Z" fill="#777E91"/>
  <path d="M7.58333 11.3334C6.98503 11.3334 6.5 11.8184 6.5 12.4167V18.9167C6.5 19.515 6.98503 20 7.58333 20C8.18164 20 8.66667 19.515 8.66667 18.9167V12.4167C8.66667 11.8184 8.18164 11.3334 7.58333 11.3334Z" fill="#777E91"/>
  <path d="M15.1663 13.5C13.9697 13.5 12.9997 14.4701 12.9997 15.6667V18.9167C12.9997 19.515 12.5147 20 11.9163 20C11.318 20 10.833 19.515 10.833 18.9167V12.4167C10.833 11.8184 11.318 11.3334 11.9163 11.3334C12.3555 11.3334 12.7336 11.5947 12.9037 11.9703C13.5622 11.5663 14.3372 11.3334 15.1663 11.3334C17.5595 11.3334 19.4997 13.2735 19.4997 15.6667V18.9167C19.4997 19.515 19.0147 20 18.4163 20C17.818 20 17.333 19.515 17.333 18.9167V15.6667C17.333 14.4701 16.363 13.5 15.1663 13.5Z" fill="#777E91"/>
</svg>
