<svg xmlns="http://www.w3.org/2000/svg" width="22" height="22" viewBox="0 0 22 22" fill="none">
  <g clip-path="url(#clip0_1501_7150)">
    <path fill-rule="evenodd" clip-rule="evenodd" d="M15.2353 14.8726C16.5134 13.0986 17.3872 11.1488 17.3872 9.17529C17.3872 5.64804 14.5277 2.78863 11.0005 2.78863C7.47323 2.78863 4.61382 5.64804 4.61382 9.17529C4.61382 11.1488 5.4876 13.0986 6.76564 14.8726C8.03404 16.6333 9.59373 18.0713 10.7057 18.982C10.8881 19.1314 11.1129 19.1314 11.2953 18.982C12.4073 18.0713 13.9669 16.6333 15.2353 14.8726ZM12.4515 20.3937C14.8093 18.4625 19.2119 14.1858 19.2119 9.17529C19.2119 4.64025 15.5355 0.963867 11.0005 0.963867C6.46544 0.963867 2.78906 4.64025 2.78906 9.17529C2.78906 14.1858 7.19164 18.4625 9.54945 20.3937C10.4043 21.0938 11.5967 21.0938 12.4515 20.3937Z" fill="#777E91"/>
    <path fill-rule="evenodd" clip-rule="evenodd" d="M11.0001 7.35015C9.99232 7.35015 9.17535 8.16713 9.17535 9.17491C9.17535 10.1827 9.99232 10.9997 11.0001 10.9997C12.0079 10.9997 12.8249 10.1827 12.8249 9.17491C12.8249 8.16713 12.0079 7.35015 11.0001 7.35015ZM7.35059 9.17491C7.35059 7.15934 8.98453 5.52539 11.0001 5.52539C13.0157 5.52539 14.6496 7.15934 14.6496 9.17491C14.6496 11.1905 13.0157 12.8244 11.0001 12.8244C8.98453 12.8244 7.35059 11.1905 7.35059 9.17491Z" fill="#777E91"/>
  </g>
  <defs>
    <clipPath id="clip0_1501_7150">
      <rect width="21.8971" height="21.8971" fill="white" transform="translate(0.0517578 0.0512695)"/>
    </clipPath>
  </defs>
</svg>
