<svg xmlns="http://www.w3.org/2000/svg" width="35" height="35" viewBox="0 0 35 35" fill="none">
  <path d="M16 2.02073C16.9282 1.48483 18.0718 1.48483 19 2.02073L30.1554 8.46132C31.0836 8.99722 31.6554 9.9876 31.6554 11.0594V23.9406C31.6554 25.0124 31.0836 26.0028 30.1554 26.5387L19 32.9793C18.0718 33.5152 16.9282 33.5152 16 32.9793L4.84456 26.5387C3.91635 26.0028 3.34456 25.0124 3.34456 23.9406V11.0594C3.34456 9.9876 3.91635 8.99722 4.84456 8.46133L16 2.02073Z" fill="#3C8AFF" stroke="#29579A" stroke-width="2"/>
  <path d="M11.4932 25V11.7721C11.4932 11.0444 12.083 10.4546 12.8106 10.4546C13.5383 10.4546 14.1281 11.0444 14.1281 11.7721V16.6123H18.8682C19.9727 16.6123 20.8682 15.7168 20.8682 14.6123V12.4546C20.8682 11.35 21.7636 10.4546 22.8682 10.4546H23.5102V23.679C23.5102 24.4086 22.9188 25 22.1892 25C21.4596 25 20.8682 24.4086 20.8682 23.679V18.8211H16.1281C15.0235 18.8211 14.1281 19.7165 14.1281 20.8211V23C14.1281 24.1046 13.2327 25 12.1281 25H11.4932Z" fill="#FCFCFD"/>
</svg>
