<svg width="305" height="305" viewBox="0 0 305 305" fill="none" xmlns="http://www.w3.org/2000/svg">
<path d="M136.171 21.997C146.276 16.1634 158.724 16.1634 168.829 21.997L257.355 73.1076C267.459 78.9412 273.683 89.7222 273.683 101.389V203.611C273.683 215.278 267.459 226.059 257.355 231.892L168.829 283.003C158.724 288.837 146.276 288.837 136.171 283.003L47.6454 231.892C37.5413 226.059 31.3168 215.278 31.3168 203.611V101.389C31.3168 89.7222 37.5413 78.9412 47.6454 73.1076L136.171 21.997Z" fill="#3C8AFF" stroke="white" stroke-width="21.7714"/>
<path d="M100.155 217.858V102.585C100.155 96.2446 105.295 91.1045 111.636 91.1045C117.977 91.1045 123.117 96.2446 123.117 102.585V144.764H160.08C172.104 144.764 181.852 135.017 181.852 122.993V112.876C181.852 100.852 191.599 91.1045 203.623 91.1045H204.875V206.346C204.875 212.704 199.721 217.858 193.363 217.858C187.006 217.858 181.852 212.704 181.852 206.346V164.012H144.888C132.864 164.012 123.117 173.76 123.117 185.784V196.086C123.117 208.11 113.37 217.858 101.345 217.858H100.155Z" fill="#FCFCFD"/>
</svg>
