<svg xmlns="http://www.w3.org/2000/svg" width="48" height="48" viewBox="0 0 48 48" fill="none">
  <circle cx="24" cy="24" r="24" fill="#3B71FE"/>
  <path d="M16.9462 21.7121C17.1664 21.8377 17.8302 22.2108 18.9375 22.8312C20.045 23.4516 20.8933 23.9293 21.4826 24.2643C21.5474 24.301 21.6849 24.3808 21.8954 24.5038C22.1059 24.627 22.2807 24.7265 22.4199 24.8024C22.5592 24.8782 22.7275 24.9633 22.9251 25.0575C23.1227 25.1517 23.3089 25.2225 23.4837 25.2693C23.6586 25.3166 23.8205 25.34 23.9694 25.34H23.9792H23.989C24.1379 25.34 24.2999 25.3166 24.4747 25.2693C24.6495 25.2225 24.8359 25.1516 25.0333 25.0575C25.2308 24.9632 25.3991 24.8782 25.5384 24.8024C25.6776 24.7265 25.8524 24.627 26.0629 24.5038C26.2733 24.3807 26.4111 24.301 26.4758 24.2643C27.0715 23.9293 28.587 23.0784 31.0219 21.7119C31.4947 21.445 31.8896 21.123 32.2069 20.746C32.5244 20.3692 32.683 19.9738 32.683 19.5603C32.683 19.2147 32.5291 18.9188 32.2214 18.6728C31.9138 18.4267 31.5495 18.3037 31.1287 18.3037H16.8296C16.331 18.3037 15.9472 18.4398 15.6785 18.712C15.4098 18.9843 15.2754 19.3246 15.2754 19.7329C15.2754 20.0628 15.4535 20.4202 15.8097 20.805C16.1658 21.1898 16.5447 21.4922 16.9462 21.7121Z" fill="#FCFCFD"/>
  <path d="M31.7115 22.5524C29.5875 23.7145 27.9748 24.6178 26.874 25.2618C26.5049 25.4816 26.2054 25.6532 25.9755 25.7762C25.7455 25.8992 25.4397 26.0249 25.0575 26.1531C24.6755 26.2815 24.3195 26.3455 23.9891 26.3455H23.9792H23.9695C23.6392 26.3455 23.283 26.2815 22.9009 26.1531C22.5189 26.0249 22.2129 25.8992 21.983 25.7762C21.7531 25.6532 21.4536 25.4816 21.0845 25.2618C20.2102 24.7435 18.6009 23.8403 16.2566 22.5524C15.8874 22.3535 15.5603 22.1256 15.2754 21.8691V28.1046C15.2754 28.4503 15.4275 28.746 15.7319 28.9921C16.0363 29.2382 16.4022 29.3613 16.8297 29.3613H31.1288C31.5562 29.3613 31.9221 29.2382 32.2265 28.9921C32.531 28.7459 32.683 28.4503 32.683 28.1046V21.8691C32.4045 22.1203 32.0808 22.3482 31.7115 22.5524Z" fill="#FCFCFD"/>
</svg>
