<svg xmlns="http://www.w3.org/2000/svg" width="48" height="48" viewBox="0 0 48 48" fill="none">
  <circle cx="24" cy="24" r="24" fill="#3B71FE"/>
  <path d="M26.0377 17.6287V17.0471C26.0177 15.7636 24.9748 14.7207 23.6913 14.7207C22.4078 14.7207 21.3649 15.7636 21.3448 17.0671V17.6287C19.2992 18.5512 17.9756 20.5968 17.9756 22.843V24.7482H29.407V22.9433C29.407 20.6771 28.0834 18.6114 26.0377 17.6287Z" fill="#FCFCFD"/>
  <path d="M29.9476 25.7515H17.4333C16.6712 26.4935 16.25 27.4962 16.25 28.5792V29.0605C16.25 29.4215 16.5508 29.7023 16.8918 29.7023H20.8627C21.2237 31.2666 22.7679 32.2292 24.3322 31.8883C25.4152 31.6476 26.2775 30.7853 26.5182 29.7023H30.4891C30.8501 29.7023 31.1309 29.4015 31.1309 29.0605V28.5792C31.1509 27.4962 30.7097 26.4935 29.9476 25.7515Z" fill="#FCFCFD"/>
</svg>
