<svg xmlns="http://www.w3.org/2000/svg" width="22" height="22" viewBox="0 0 22 22" fill="none">
  <path fill-rule="evenodd" clip-rule="evenodd" d="M16.7079 2.31233C18.5879 1.52898 20.474 3.41507 19.6907 5.29511L14.2861 18.2659C13.2292 20.8026 9.51144 20.3738 9.05966 17.6632L8.38539 13.6176L4.33982 12.9433C1.62915 12.4915 1.20039 8.77378 3.73706 7.71683L16.7079 2.31233ZM18.0063 4.59328C18.1629 4.21727 17.7857 3.84005 17.4097 3.99672L4.43889 9.40123C3.59333 9.75354 3.73626 10.9928 4.63981 11.1434L8.68538 11.8177C9.45447 11.9458 10.0571 12.5485 10.1853 13.3176L10.8596 17.3632C11.0102 18.2667 12.2494 18.4096 12.6018 17.5641L18.0063 4.59328Z" fill="#777E91"/>
</svg>
