<svg xmlns="http://www.w3.org/2000/svg" width="41" height="32" viewBox="0 0 41 32" fill="none">
  <path fill-rule="evenodd" clip-rule="evenodd" d="M2.78137 32C1.12211 27.2593 0.29248 22.558 0.29248 17.8963C0.29248 12.5235 1.7147 8.19753 4.55915 4.91852C7.40359 1.6395 11.5517 0 17.0036 0V7.46667C12.8159 7.46668 10.7221 10.1531 10.7221 15.5259V17.3037H18.3073V32H2.78137ZM25.1811 32C23.6009 27.1802 22.8107 22.479 22.8107 17.8963C22.8107 12.5235 24.2132 8.19753 27.0182 4.91852C29.8231 1.6395 33.9515 0 39.4033 0V7.46667C35.2947 7.46668 33.2404 10.1531 33.2404 15.5259V17.3037H40.707V32H25.1811Z" fill="#3B71FE"/>
</svg>
