<svg xmlns="http://www.w3.org/2000/svg" width="16" height="16" viewBox="0 0 16 16" fill="none">
  <path fill-rule="evenodd" clip-rule="evenodd" d="M9.93677 10.8801C9.03365 11.5821 7.89882 12.0002 6.66634 12.0002C3.72082 12.0002 1.33301 9.61235 1.33301 6.66683C1.33301 3.72131 3.72082 1.3335 6.66634 1.3335C9.61186 1.3335 11.9997 3.72131 11.9997 6.66683C11.9997 7.8993 11.5816 9.03414 10.8796 9.93726L14.4711 13.5288C14.7314 13.7891 14.7314 14.2112 14.4711 14.4716C14.2107 14.7319 13.7886 14.7319 13.5283 14.4716L9.93677 10.8801ZM10.6663 6.66683C10.6663 8.87597 8.87548 10.6668 6.66634 10.6668C4.4572 10.6668 2.66634 8.87597 2.66634 6.66683C2.66634 4.45769 4.4572 2.66683 6.66634 2.66683C8.87548 2.66683 10.6663 4.45769 10.6663 6.66683Z" fill="#FCFCFD"/>
</svg>
