<svg xmlns="http://www.w3.org/2000/svg" width="32" height="32" viewBox="0 0 32 32" fill="none">
  <path fill-rule="evenodd" clip-rule="evenodd" d="M29.3337 15.9998C29.3337 23.3636 23.3641 29.3332 16.0003 29.3332C8.63653 29.3332 2.66699 23.3636 2.66699 15.9998C2.66699 8.63604 8.63653 2.6665 16.0003 2.6665C23.3641 2.6665 29.3337 8.63604 29.3337 15.9998ZM14.667 6.6665C14.667 5.93012 15.2639 5.33317 16.0003 5.33317C21.8914 5.33317 26.667 10.1088 26.667 15.9998C26.667 21.8909 21.8914 26.6665 16.0003 26.6665C10.1093 26.6665 5.33366 21.8909 5.33366 15.9998C5.33366 15.2635 5.93061 14.6665 6.66699 14.6665C7.40337 14.6665 8.00033 15.2635 8.00033 15.9998C8.00033 20.4181 11.582 23.9998 16.0003 23.9998C20.4186 23.9998 24.0003 20.4181 24.0003 15.9998C24.0003 11.5816 20.4186 7.99984 16.0003 7.99984C15.2639 7.99984 14.667 7.40288 14.667 6.6665ZM16.0003 10.6665C15.2639 10.6665 14.667 11.2635 14.667 11.9998C14.667 12.7362 15.2639 13.3332 16.0003 13.3332C17.4731 13.3332 18.667 14.5271 18.667 15.9998C18.667 17.4726 17.4731 18.6665 16.0003 18.6665C15.2639 18.6665 14.667 19.2635 14.667 19.9998C14.667 20.7362 15.2639 21.3332 16.0003 21.3332C18.9458 21.3332 21.3337 18.9454 21.3337 15.9998C21.3337 13.0543 18.9458 10.6665 16.0003 10.6665Z" fill="#FCFCFD"/>
</svg>
