<svg xmlns="http://www.w3.org/2000/svg" width="32" height="32" viewBox="0 0 32 32" fill="none">
  <path fill-rule="evenodd" clip-rule="evenodd" d="M29.3337 15.9998C29.3337 23.3636 23.3641 29.3332 16.0003 29.3332C8.63653 29.3332 2.66699 23.3636 2.66699 15.9998C2.66699 8.63604 8.63653 2.6665 16.0003 2.6665C23.3641 2.6665 29.3337 8.63604 29.3337 15.9998ZM11.9632 18.3529C11.79 17.6372 11.0694 17.1974 10.3537 17.3706C9.63799 17.5438 9.19818 18.2644 9.37137 18.9801C9.72192 20.4288 10.5817 21.7053 11.7887 22.6106C12.9943 23.5148 14.4796 23.9998 16.0006 23.9998C17.5216 23.9998 19.0069 23.5148 20.2126 22.6106C21.4196 21.7053 22.2794 20.4288 22.6299 18.9801C22.8031 18.2644 22.3633 17.5438 21.6475 17.3706C20.9318 17.1974 20.2112 17.6372 20.038 18.3529C19.8388 19.1763 19.3436 19.929 18.6125 20.4772C17.8801 21.0266 16.9593 21.3332 16.0006 21.3332C15.042 21.3332 14.1212 21.0266 13.3887 20.4772C12.6577 19.929 12.1625 19.1763 11.9632 18.3529ZM13.5715 14.6451C12.847 14.7766 12.153 14.2958 12.0215 13.5713C12.0157 13.539 12.0083 13.51 12.0001 13.4839C11.9919 13.51 11.9845 13.539 11.9787 13.5713C11.8472 14.2958 11.1532 14.7766 10.4287 14.6451C9.70413 14.5136 9.22337 13.8196 9.35486 13.0951C9.46582 12.4837 9.74695 11.8886 10.2043 11.4312C10.6677 10.9678 11.2976 10.6665 12.0001 10.6665C12.7025 10.6665 13.3325 10.9678 13.7959 11.4312C14.2532 11.8886 14.5344 12.4837 14.6453 13.0951C14.7768 13.8196 14.2961 14.5136 13.5715 14.6451ZM20.0215 13.5713C20.153 14.2958 20.847 14.7766 21.5715 14.6451C22.2961 14.5136 22.7768 13.8196 22.6453 13.0951C22.5344 12.4837 22.2532 11.8886 21.7959 11.4312C21.3325 10.9678 20.7025 10.6665 20.0001 10.6665C19.2976 10.6665 18.6677 10.9678 18.2043 11.4312C17.747 11.8886 17.4658 12.4837 17.3549 13.0951C17.2234 13.8196 17.7041 14.5136 18.4287 14.6451C19.1532 14.7766 19.8472 14.2958 19.9787 13.5713C19.9845 13.539 19.9919 13.51 20.0001 13.4839C20.0083 13.51 20.0157 13.539 20.0215 13.5713Z" fill="#FCFCFD"/>
</svg>
