<svg xmlns="http://www.w3.org/2000/svg" width="17" height="16" viewBox="0 0 17 16" fill="none">
  <path d="M8.50016 1.3335C8.13197 1.3335 7.8335 1.63197 7.8335 2.00016V4.00016C7.8335 4.36835 8.13197 4.66683 8.50016 4.66683C8.86835 4.66683 9.16683 4.36835 9.16683 4.00016V2.00016C9.16683 1.63197 8.86835 1.3335 8.50016 1.3335Z" fill="#fff"/>
  <path d="M8.50016 11.3335C8.13197 11.3335 7.8335 11.632 7.8335 12.0002V14.0002C7.8335 14.3684 8.13197 14.6668 8.50016 14.6668C8.86835 14.6668 9.16683 14.3684 9.16683 14.0002V12.0002C9.16683 11.632 8.86835 11.3335 8.50016 11.3335Z" fill="#fff"/>
  <path d="M14.5002 7.3335C14.8684 7.3335 15.1668 7.63197 15.1668 8.00016C15.1668 8.36835 14.8684 8.66683 14.5002 8.66683H12.5002C12.132 8.66683 11.8335 8.36835 11.8335 8.00016C11.8335 7.63197 12.132 7.3335 12.5002 7.3335H14.5002Z" fill="#fff"/>
  <path d="M5.16683 8.00016C5.16683 7.63197 4.86835 7.3335 4.50016 7.3335H2.50016C2.13197 7.3335 1.8335 7.63197 1.8335 8.00016C1.8335 8.36835 2.13197 8.66683 2.50016 8.66683H4.50016C4.86835 8.66683 5.16683 8.36835 5.16683 8.00016Z" fill="#fff"/>
  <path d="M12.2714 3.28618C12.5318 3.02583 12.9539 3.02583 13.2142 3.28618C13.4746 3.54653 13.4746 3.96864 13.2142 4.22899L11.8 5.64321C11.5397 5.90356 11.1176 5.90356 10.8572 5.64321C10.5969 5.38286 10.5969 4.96075 10.8572 4.7004L12.2714 3.28618Z" fill="#fff"/>
  <path d="M6.14312 10.3571C5.88277 10.0968 5.46066 10.0968 5.20031 10.3571L3.78609 11.7714C3.52574 12.0317 3.52574 12.4538 3.78609 12.7142C4.04644 12.9745 4.46855 12.9745 4.7289 12.7142L6.14312 11.3C6.40347 11.0396 6.40347 10.6175 6.14312 10.3571Z" fill="#fff"/>
  <path d="M13.2142 11.7714C13.4746 12.0318 13.4746 12.4539 13.2142 12.7142C12.9539 12.9746 12.5318 12.9746 12.2714 12.7142L10.8572 11.3C10.5969 11.0397 10.5969 10.6176 10.8572 10.3572C11.1176 10.0969 11.5397 10.0969 11.8 10.3572L13.2142 11.7714Z" fill="#fff"/>
  <path d="M6.14318 5.64312C6.40353 5.38277 6.40353 4.96066 6.14318 4.70031L4.72897 3.28609C4.46862 3.02574 4.04651 3.02574 3.78616 3.28609C3.52581 3.54644 3.52581 3.96855 3.78616 4.2289L5.20037 5.64312C5.46072 5.90347 5.88283 5.90347 6.14318 5.64312Z" fill="#fff"/>
</svg>
