<svg xmlns="http://www.w3.org/2000/svg" width="25" height="24" viewBox="0 0 25 24" fill="none">
  <g clip-path="url(#clip0_1251_5198)">
    <path d="M14.5 9V16C14.5 16.5523 14.9477 17 15.5 17H18.5H21.5H23.5C24.0523 17 24.5 16.5523 24.5 16V12.6637C24.5 12.0249 24.1948 11.4244 23.6786 11.0479L20.0267 8.38417C19.6844 8.13452 19.2717 8 18.8481 8H15.5C14.9477 8 14.5 8.44772 14.5 9Z" fill="#FCFCFD"/>
    <path d="M10.5 5H2.5C1.39543 5 0.5 5.89543 0.5 7V15C0.5 16.1046 1.39543 17 2.5 17H3.5H7.5H11.5C12.0523 17 12.5 16.5511 12.5 15.9988V7.00057C12.5 5.896 11.6046 5 10.5 5Z" fill="#FCFCFD"/>
    <path d="M5.5 19C6.60457 19 7.5 18.1046 7.5 17C7.5 15.8954 6.60457 15 5.5 15C4.39543 15 3.5 15.8954 3.5 17C3.5 18.1046 4.39543 19 5.5 19Z" fill="#FCFCFD"/>
    <path d="M19.5 19C20.6046 19 21.5 18.1046 21.5 17C21.5 15.8954 20.6046 15 19.5 15C18.3954 15 17.5 15.8954 17.5 17C17.5 18.1046 18.3954 19 19.5 19Z" fill="#FCFCFD"/>
  </g>
  <defs>
    <clipPath id="clip0_1251_5198">
      <rect width="24" height="24" fill="white" transform="translate(0.5)"/>
    </clipPath>
  </defs>
</svg>
