<svg xmlns="http://www.w3.org/2000/svg" width="46" height="45" viewBox="0 0 46 45" fill="none">
  <g clip-path="url(#clip0_1490_5066)">
    <path d="M26.75 16.875V30C26.75 31.0355 27.5895 31.875 28.625 31.875H34.25H39.875H43.625C44.6605 31.875 45.5 31.0355 45.5 30V23.7445C45.5 22.5466 44.9277 21.4208 43.9599 20.7149L37.1125 15.7203C36.4708 15.2522 35.697 15 34.9027 15H28.625C27.5895 15 26.75 15.8395 26.75 16.875Z" fill="#3B71FE"/>
    <path d="M19.25 9.375H4.25C2.17893 9.375 0.5 11.0539 0.5 13.125V28.125C0.5 30.1961 2.17893 31.875 4.25 31.875H6.125H13.625H21.125C22.1605 31.875 23 31.0334 23 29.9978V13.1261C23 11.055 21.3211 9.375 19.25 9.375Z" fill="#3B71FE"/>
    <path d="M9.875 35.625C11.9461 35.625 13.625 33.9461 13.625 31.875C13.625 29.8039 11.9461 28.125 9.875 28.125C7.80393 28.125 6.125 29.8039 6.125 31.875C6.125 33.9461 7.80393 35.625 9.875 35.625Z" fill="#3B71FE"/>
    <path d="M36.125 35.625C38.1961 35.625 39.875 33.9461 39.875 31.875C39.875 29.8039 38.1961 28.125 36.125 28.125C34.0539 28.125 32.375 29.8039 32.375 31.875C32.375 33.9461 34.0539 35.625 36.125 35.625Z" fill="#3B71FE"/>
  </g>
  <defs>
    <clipPath id="clip0_1490_5066">
      <rect width="45" height="45" fill="white" transform="translate(0.5)"/>
    </clipPath>
  </defs>
</svg>
