<svg xmlns="http://www.w3.org/2000/svg" width="45" height="45" viewBox="0 0 45 45" fill="none">
  <path d="M26.25 16.875V30C26.25 31.0355 27.0895 31.875 28.125 31.875H33.75H39.375H43.125C44.1605 31.875 45 31.0355 45 30V23.7445C45 22.5466 44.4277 21.4208 43.4599 20.7149L36.6125 15.7203C35.9708 15.2522 35.197 15 34.4027 15H28.125C27.0895 15 26.25 15.8395 26.25 16.875Z" fill="#23262F"/>
  <path d="M18.75 9.375H3.75C1.67893 9.375 0 11.0539 0 13.125V28.125C0 30.1961 1.67893 31.875 3.75 31.875H5.625H13.125H20.625C21.6605 31.875 22.5 31.0334 22.5 29.9978V13.1261C22.5 11.055 20.8211 9.375 18.75 9.375Z" fill="#23262F"/>
  <path d="M9.375 35.625C11.4461 35.625 13.125 33.9461 13.125 31.875C13.125 29.8039 11.4461 28.125 9.375 28.125C7.30393 28.125 5.625 29.8039 5.625 31.875C5.625 33.9461 7.30393 35.625 9.375 35.625Z" fill="#23262F"/>
  <path d="M35.625 35.625C37.6961 35.625 39.375 33.9461 39.375 31.875C39.375 29.8039 37.6961 28.125 35.625 28.125C33.5539 28.125 31.875 29.8039 31.875 31.875C31.875 33.9461 33.5539 35.625 35.625 35.625Z" fill="#23262F"/>
</svg>
