<svg xmlns="http://www.w3.org/2000/svg" width="32" height="32" viewBox="0 0 32 32" fill="#777E91">
  <path fill-rule="evenodd" clip-rule="evenodd" d="M25.0907 18.8332C24.2688 17.8803 22.8571 17.9294 21.7533 18.5336C20.0451 19.4686 18.0846 20.0001 16 20.0001C13.9154 20.0001 11.9549 19.4686 10.2467 18.5336C9.14289 17.9294 7.73122 17.8803 6.90934 18.8332C5.0963 20.9353 4 23.673 4 26.6668V28.0001C4 29.4729 5.19391 30.6668 6.66667 30.6668H25.3333C26.8061 30.6668 28 29.4729 28 28.0001V26.6668C28 23.673 26.9037 20.9353 25.0907 18.8332Z" fill="#777E91"/>
  <path d="M22.6663 8.00016C22.6663 11.6821 19.6816 14.6668 15.9997 14.6668C12.3178 14.6668 9.33301 11.6821 9.33301 8.00016C9.33301 4.31826 12.3178 1.3335 15.9997 1.3335C19.6816 1.3335 22.6663 4.31826 22.6663 8.00016Z" fill="#777E91"/>
</svg>
