<svg xmlns="http://www.w3.org/2000/svg" width="37" height="37" viewBox="0 0 37 37" fill="none">
  <path d="M33.9167 29.2915C33.9167 31.8458 31.846 33.9165 29.2917 33.9165C26.7373 33.9165 24.6667 31.8458 24.6667 29.2915C24.6667 26.7372 26.7373 24.6665 29.2917 24.6665C31.846 24.6665 33.9167 26.7372 33.9167 29.2915Z" fill="#3B71FE"/>
  <path fill-rule="evenodd" clip-rule="evenodd" d="M23.8958 6.16683C21.7672 6.16683 20.0417 7.8924 20.0417 10.021V26.9793C20.0417 30.8108 16.9356 33.9168 13.1042 33.9168C9.27268 33.9168 6.16666 30.8108 6.16666 26.9793V15.4168C6.16666 14.5654 6.85688 13.8752 7.70832 13.8752C8.55976 13.8752 9.24999 14.5654 9.24999 15.4168V26.9793C9.24999 29.1079 10.9756 30.8335 13.1042 30.8335C15.2328 30.8335 16.9583 29.1079 16.9583 26.9793V10.021C16.9583 6.18952 20.0643 3.0835 23.8958 3.0835C27.7273 3.0835 30.8333 6.18952 30.8333 10.021V20.0418C30.8333 20.8933 30.1431 21.5835 29.2917 21.5835C28.4402 21.5835 27.75 20.8933 27.75 20.0418V10.021C27.75 7.8924 26.0244 6.16683 23.8958 6.16683Z" fill="#3B71FE"/>
  <path d="M6.37667 3.82443C6.97157 2.80461 8.44509 2.80462 9.03999 3.82444L11.7517 8.47313C12.3513 9.50089 11.6099 10.7916 10.4201 10.7916H4.99659C3.80675 10.7916 3.06541 9.50089 3.66494 8.47312L6.37667 3.82443Z" fill="#3B71FE"/>
</svg>
